<!-- Generated by IcoMoon.io -->
<svg version="1.1" xmlns="http://www.w3.org/2000/svg" width="25" height="25" viewBox="0 0 32 32">
<title>comment</title>
<path d="M16 4.571c-0.043 0-0.095-0.001-0.146-0.001-2.398 0-4.688 0.456-6.791 1.285l0.126-0.043c-1.989 0.736-3.677 1.88-5.029 3.339l-0.008 0.008c-1.131 1.184-1.838 2.784-1.866 4.549v0.006c0.015 1.438 0.494 2.76 1.293 3.83l-0.013-0.017c0.954 1.293 2.154 2.346 3.538 3.107l0.056 0.029 1.554 0.894-0.487 1.712c-0.311 1.167-0.738 2.189-1.282 3.133l0.033-0.062c1.887-0.79 3.51-1.817 4.929-3.070l-0.019 0.016 0.768-0.679 1.017 0.107c0.694 0.088 1.499 0.139 2.318 0.143h0.005c0.043 0 0.095 0.001 0.146 0.001 2.398 0 4.688-0.456 6.791-1.285l-0.126 0.043c1.989-0.736 3.677-1.88 5.029-3.339l0.008-0.008c1.153-1.171 1.865-2.779 1.865-4.553s-0.712-3.383-1.866-4.554l0.001 0.001c-1.36-1.467-3.047-2.613-4.947-3.319l-0.089-0.029c-1.977-0.785-4.269-1.241-6.666-1.241-0.050 0-0.101 0-0.151 0.001h0.008zM32 13.714c-0.014 2.199-0.823 4.207-2.153 5.752l0.010-0.011c-1.542 1.819-3.496 3.242-5.723 4.127l-0.098 0.034c-2.312 0.967-4.999 1.528-7.816 1.528-0.078 0-0.154 0-0.231-0.001h0.011c-0.914-0.002-1.815-0.054-2.701-0.153l0.111 0.010c-2.264 2.010-5.027 3.511-8.079 4.293l-0.135 0.030c-0.575 0.166-1.265 0.304-1.973 0.387l-0.063 0.006h-0.091c-0.186 0-0.355-0.071-0.482-0.187-0.141-0.127-0.242-0.295-0.285-0.485l-0.001-0.006v-0.018c-0.019-0.033-0.031-0.073-0.031-0.117 0-0.038 0.009-0.072 0.024-0.104l-0.001 0.001c0.023-0.054 0.035-0.115 0.035-0.182 0-0.001 0-0.001 0-0.002q-0.009-0.035 0.080-0.17l0.107-0.161 0.126-0.152 0.143-0.161q0.126-0.143 0.553-0.616l0.616-0.679q0.187-0.206 0.553-0.705c0.199-0.264 0.392-0.563 0.561-0.877l0.019-0.038q0.214-0.41 0.482-1.054c0.157-0.362 0.315-0.814 0.446-1.277l0.019-0.080c-1.781-0.984-3.259-2.306-4.393-3.891l-0.027-0.040c-1.003-1.39-1.608-3.126-1.616-5.002v-0.002c0.014-2.199 0.823-4.207 2.153-5.752l-0.010 0.011c1.542-1.819 3.496-3.242 5.723-4.127l0.098-0.034c2.312-0.967 4.999-1.528 7.816-1.528 0.078 0 0.154 0 0.231 0.001h-0.011c0.065-0.001 0.143-0.001 0.219-0.001 2.817 0 5.504 0.561 7.953 1.578l-0.137-0.050c2.325 0.919 4.28 2.341 5.803 4.139l0.017 0.021c1.32 1.534 2.129 3.542 2.143 5.738v0.003z"></path>
</svg>
