<!-- Generated by IcoMoon.io -->
<svg version="1.1" xmlns="http://www.w3.org/2000/svg" width="25" height="25" viewBox="0 0 32 32">
<title>download</title>
<path d="M30.873 11.441c-0.622 0-1.127 0.505-1.127 1.127v15.524h-27.492v-15.524c0-0.622-0.504-1.127-1.127-1.127s-1.127 0.504-1.127 1.127v16.651c0 0.622 0.504 1.127 1.127 1.127h29.746c0.622 0 1.127-0.505 1.127-1.127v-16.651c0-0.623-0.505-1.127-1.127-1.127z"></path>
<path d="M15.201 23.251c0.211 0.211 0.498 0.33 0.797 0.33s0.585-0.119 0.797-0.33l4.864-4.864c0.44-0.44 0.44-1.154 0-1.594s-1.154-0.44-1.594 0l-2.94 2.94 0.001-16.953c0-0.622-0.504-1.127-1.127-1.127s-1.127 0.505-1.127 1.127l-0.001 16.953-2.937-2.937c-0.44-0.44-1.153-0.44-1.594 0s-0.44 1.154 0 1.594l4.86 4.861z"></path>
</svg>
