<!-- Generated by IcoMoon.io -->
<svg version="1.1" xmlns="http://www.w3.org/2000/svg" width="25" height="25" viewBox="0 0 32 32">
<title>like</title>
<path d="M30.62 21.755c0.656-0.836 0.97-1.733 0.93-2.657-0.040-1.017-0.495-1.813-0.87-2.302 0.435-1.084 0.602-2.79-0.85-4.115-1.064-0.97-2.871-1.405-5.373-1.285-1.76 0.080-3.232 0.408-3.292 0.422h-0.007c-0.335 0.060-0.689 0.134-1.051 0.214-0.027-0.428 0.047-1.492 0.836-3.888 0.937-2.851 0.883-5.032-0.174-6.491-1.111-1.532-2.884-1.653-3.406-1.653-0.502 0-0.964 0.207-1.291 0.589-0.743 0.863-0.656 2.456-0.562 3.192-0.883 2.369-3.359 8.177-5.454 9.79-0.040 0.027-0.074 0.060-0.107 0.094-0.616 0.649-1.031 1.352-1.312 1.967-0.395-0.214-0.843-0.335-1.325-0.335h-4.082c-1.539 0-2.784 1.251-2.784 2.784v10.874c0 1.539 1.251 2.784 2.784 2.784h4.082c0.596 0 1.151-0.187 1.606-0.509l1.573 0.187c0.241 0.033 4.524 0.576 8.92 0.488 0.796 0.060 1.546 0.094 2.242 0.094 1.198 0 2.242-0.094 3.112-0.281 2.048-0.435 3.446-1.305 4.156-2.583 0.542-0.977 0.542-1.947 0.455-2.563 1.332-1.205 1.566-2.536 1.519-3.473-0.027-0.542-0.147-1.004-0.274-1.345zM3.23 29.932c-0.542 0-0.977-0.442-0.977-0.977v-10.881c0-0.542 0.442-0.977 0.977-0.977h4.082c0.542 0 0.977 0.442 0.977 0.977v10.874c0 0.542-0.442 0.977-0.977 0.977h-4.082v0.007zM28.907 20.972c-0.281 0.294-0.335 0.743-0.12 1.091 0 0.007 0.274 0.475 0.308 1.118 0.047 0.877-0.375 1.653-1.258 2.315-0.314 0.241-0.442 0.656-0.308 1.031 0 0.007 0.288 0.89-0.181 1.726-0.448 0.803-1.445 1.378-2.958 1.7-1.211 0.261-2.857 0.308-4.878 0.147-0.027 0-0.060 0-0.094 0-4.303 0.094-8.652-0.468-8.699-0.475h-0.007l-0.676-0.080c0.040-0.187 0.060-0.388 0.060-0.589v-10.881c0-0.288-0.047-0.569-0.127-0.83 0.12-0.448 0.455-1.445 1.245-2.295 3.005-2.382 5.942-10.419 6.069-10.767 0.054-0.141 0.067-0.294 0.040-0.448-0.114-0.749-0.074-1.666 0.087-1.941 0.355 0.007 1.312 0.107 1.887 0.903 0.683 0.944 0.656 2.63-0.080 4.865-1.124 3.406-1.218 5.199-0.328 5.989 0.442 0.395 1.031 0.415 1.459 0.261 0.408-0.094 0.796-0.174 1.164-0.234 0.027-0.007 0.060-0.013 0.087-0.020 2.054-0.448 5.735-0.723 7.013 0.442 1.084 0.99 0.314 2.302 0.228 2.442-0.248 0.375-0.174 0.863 0.161 1.164 0.007 0.007 0.709 0.669 0.743 1.559 0.027 0.596-0.254 1.205-0.836 1.807z"></path>
</svg>
