<!-- Generated by IcoMoon.io -->
<svg version="1.1" xmlns="http://www.w3.org/2000/svg" width="25" height="25" viewBox="0 0 32 32">
<title>view</title>
<path d="M31.428 15.268c-0.28-0.358-6.943-8.761-15.428-8.761s-15.149 8.403-15.429 8.761l-0.572 0.732 0.572 0.732c0.28 0.358 6.943 8.761 15.429 8.761s15.148-8.403 15.428-8.761l0.572-0.732-0.572-0.732zM16 23.116c-5.968 0-11.177-5.167-12.929-7.116 1.753-1.949 6.961-7.116 12.929-7.116s11.176 5.167 12.928 7.116c-1.753 1.949-6.962 7.116-12.928 7.116z"></path>
<path d="M16 9.499c-3.585 0-6.502 2.916-6.502 6.501s2.917 6.502 6.502 6.502 6.502-2.917 6.502-6.502c0-3.585-2.917-6.501-6.502-6.501zM16 20.125c-2.275 0-4.125-1.851-4.125-4.126s1.85-4.125 4.125-4.125c2.275 0 4.125 1.85 4.125 4.125s-1.851 4.126-4.125 4.126z"></path>
</svg>
